<?xml version="1.0" encoding="iso-8859-1"?>
<!-- Generator: Adobe Illustrator 19.0.0, SVG Export Plug-In . SVG Version: 6.00 Build 0)  -->
<svg version="1.1" id="Layer_1" xmlns="http://www.w3.org/2000/svg" xmlns:xlink="http://www.w3.org/1999/xlink" x="0px" y="0px"
	 viewBox="0 0 512 512" style="enable-background:new 0 0 512 512;" xml:space="preserve">
<path style="fill:#2197D8;" d="M451.221,58.078v431.9c0,12.167-9.855,22.022-22.022,22.022H120.33
	c-12.167,0-22.022-9.855-22.022-22.022v-14.023L413.704,36.045h1.473h14.023C441.366,36.045,451.221,45.912,451.221,58.078z"/>
<path style="fill:#F2F2F2;" d="M413.704,36.045v417.889c0,12.167-9.867,22.022-22.034,22.022H98.308H82.813
	c-12.167,0-22.034-9.855-22.034-22.022v-431.9C60.779,9.867,70.646,0,82.813,0H391.67c12.167,0,22.034,9.867,22.034,22.034V36.045z"
	/>
<g>
	<path style="fill:#F95428;" d="M376.15,389.149c7.341,7.341,7.341,19.244,0,26.584l-0.251,0.251l-26.572,26.572l-26.584-26.572
		l-0.251-0.251c-3.664-3.664-5.508-8.478-5.508-13.292c0-4.814,1.844-9.628,5.508-13.292c7.341-7.341,19.244-7.341,26.584,0
		l0.251,0.251l0.251-0.251c3.664-3.664,8.478-5.508,13.292-5.508C367.672,383.641,372.474,385.485,376.15,389.149z"/>
	<path style="fill:#F95428;" d="M316.312,167.386c21.639,21.639,21.639,56.701,0,78.34l-0.73,0.73l-78.34,78.34l-78.34-78.34
		l-0.73-0.73c-10.825-10.813-16.226-24.992-16.226-39.17c0-14.178,5.401-28.357,16.226-39.17c21.627-21.627,56.701-21.627,78.328,0
		l0.742,0.742l0.742-0.742c10.813-10.813,24.992-16.226,39.17-16.226C291.32,151.16,305.498,156.572,316.312,167.386z"/>
	<path style="fill:#F95428;" d="M151.992,38.907c7.341,7.341,7.341,19.244,0,26.572l-0.251,0.251l-26.584,26.584L98.572,65.73
		l-0.251-0.251c-3.664-3.664-5.496-8.466-5.496-13.28s1.832-9.628,5.496-13.292c7.341-7.341,19.244-7.341,26.584,0l0.251,0.251
		l0.251-0.251c3.664-3.664,8.478-5.508,13.292-5.508C143.514,33.398,148.327,35.242,151.992,38.907z"/>
</g>
<g>
</g>
<g>
</g>
<g>
</g>
<g>
</g>
<g>
</g>
<g>
</g>
<g>
</g>
<g>
</g>
<g>
</g>
<g>
</g>
<g>
</g>
<g>
</g>
<g>
</g>
<g>
</g>
<g>
</g>
</svg>
